P2
13 13
5
0  0  0  0  0  0  0  0  0  0  0  0  0
0  0  3  3  3  0  0  0  0  0  0  0  0
0  3  3  3  3  3  0  0  0  0  0  0  0
0  3  3  3  3  3  0  0  0  0  0  0  0
0  3  3  3  3  3  0  0  0  0  0  0  0
0  0  3  3  3  0  0  0  0  0  0  0  0
0  0  0  0  0  0  0  0  4  4  4  0  0
0  0  0  0  0  0  0  4  4  4  4  4  0
0  0  0  0  0  0  4  4  4  4  4  4  4
0  0  0  0  0  0  4  4  4  5  4  4  4
0  0  0  0  0  0  4  4  4  4  4  4  4
0  0  0  0  0  0  0  4  4  4  4  4  0
0  0  0  0  0  0  0  0  4  4  4  0  0